<svg xmlns="http://www.w3.org/2000/svg" width="1240" height="1240"><path d="M606 206.031c-39.978 2.544-80.661 14.635-116.021 34.481-25.892 14.532-47.908 31.397-71.402 54.695-15.619 15.49-15.962 15.757-18 14.043-1.142-.961-8.827-8.278-17.077-16.26-19.039-18.42-28.73-26.697-39.907-34.081-29.835-19.711-58.763-18.108-81.093 4.494-9.11 9.221-13.43 16.009-18.098 28.436-9.672 25.75-11.043 62.723-3.788 102.161 5.983 32.518 17.651 69.78 33.264 106.222l5.022 11.721-10.61 17.779c-30.52 51.137-43.423 88.961-47.343 138.778-2.282 28.99 1.689 66.52 9.964 94.168l1.845 6.168-4.628 3.275c-21.016 14.873-46.253 40.783-49.118 50.429-2.096 7.052 1.528 15.618 8.029 18.98 3.886 2.01 11.776 1.874 15.675-.27 1.75-.963 6.083-5.166 9.628-9.341 7.334-8.637 19.798-20.921 27.111-26.718l4.954-3.927 6.848 13.601c9.246 18.361 20.092 34.384 36.862 54.457l3.193 3.823-2.227 3.677c-9.106 15.037-18.13 38.076-21.612 55.178-3.291 16.166-1.999 22.706 5.481 27.747 4.858 3.273 13.268 3.147 18.305-.276 4.911-3.337 6.239-6.169 8.187-17.453.896-5.192 2.985-13.507 4.643-18.479 3.218-9.648 10.495-25.542 11.692-25.534.396.002 4.321 2.951 8.721 6.552 28.283 23.15 63.438 41.391 98.193 50.95 9.374 2.578 10.295 3.052 11.465 5.898 2.43 5.911 14.693 23.141 22.232 31.237 25.478 27.358 66.242 50.15 107.703 60.219 23.251 5.646 32.096 6.641 58.907 6.622 25.991-.018 35.383-1.016 56.5-6.003 56.075-13.244 107.857-48.427 129.61-88.064 3.722-6.78 4.393-7.465 8.221-8.391 2.293-.555 11.369-3.361 20.169-6.236 26.903-8.787 56.213-24.621 79.076-42.716l8.924-7.064 3.226 6.746c4.523 9.455 9.003 23.671 10.871 34.5 1.906 11.042 3.254 13.892 8.146 17.216 2.89 1.964 4.977 2.529 9.341 2.529 10.102 0 16.502-6.699 16.225-16.984-.367-13.667-7.865-38.399-17.17-56.637l-5.674-11.121 6.381-7.379c15.573-18.008 26.783-34.236 36.545-52.9l6.259-11.968 7.972 7.245c8.151 7.406 16.285 15.969 22.265 23.438 1.847 2.307 4.833 4.895 6.637 5.75 4.143 1.966 11.71 2.003 15.437.076 6.501-3.362 10.125-11.928 8.029-18.98-2.31-7.777-21.891-29.187-39.328-43-7.188-5.695-8.673-7.331-8.168-9 4.974-16.429 9.533-38.685 11.48-56.04 1.482-13.209 1.245-44.141-.449-58.622-5.084-43.465-18.355-79.65-46.441-126.631l-10.315-17.254 6.561-15.746c18.051-43.326 28.765-80.105 34.302-117.747 2.44-16.589 2.445-50.261.011-63.352-4.726-25.405-14.285-44.12-28.639-56.065-19.234-16.007-41.377-18.197-65.717-6.502-15.469 7.434-25.809 15.963-64.001 52.796l-6.213 5.993-12.787-13.039c-28.76-29.328-55.419-48.76-89.786-65.445-32.842-15.945-65.387-24.501-102.283-26.891-15.961-1.034-15.394-1.035-32.217.036m-8 55.488c-42.592 5.281-82.113 22.592-119 52.125-11.88 9.512-32.972 30.793-43.465 43.856-10.336 12.867-12.551 14.999-18.349 17.666-5.799 2.667-15.409 2.714-21.31.103-6.764-2.992-22.33-16.083-44.376-37.322C322.551 310.059 310.016 300 304.214 300c-4.202 0-9.239 8.904-11.752 20.773-7.968 37.632 5.201 98.585 36.582 169.326 7.593 17.118 8.837 22.346 7.025 29.541-.679 2.698-7.533 15.493-15.959 29.794-19.713 33.458-19.225 32.575-24.619 44.566-17.024 37.841-23.614 78.817-19.008 118.193 1.392 11.896 4.73 29.354 5.823 30.446.269.269 4.473-.924 9.342-2.652 11.582-4.11 34.494-9.987 38.935-9.987 4.884 0 10.819 3.297 13.372 7.428 4.605 7.45 3.572 15.057-2.831 20.841-3.096 2.797-5.531 3.804-13.695 5.666C313.941 767.01 293 773.857 293 775.192c0 2.16 10.923 23.495 16.029 31.308 5.297 8.105 17.7 24.5 18.534 24.5.251 0 4.38-2.994 9.176-6.654 11.927-9.1 21.298-14.986 25.869-16.248 10.609-2.93 22.036 7.377 20.018 18.056-1.142 6.047-4.157 9.311-15.738 17.039-6.263 4.18-12.405 8.693-13.649 10.029l-2.261 2.43 8.761 7.053c39.552 31.842 89.244 49.033 135.792 46.978 35.128-1.551 60.869-12.739 84.755-36.837l10.786-10.882-6.115-11.232c-3.363-6.178-10.532-20.232-15.931-31.232-18.23-37.141-23.384-53.744-21.112-68 2.666-16.726 13.691-30.858 30.424-38.998 35.492-17.264 83.421-11.482 106.424 12.84 13.684 14.469 16.692 33.089 8.909 55.158-5.878 16.669-18.549 43.585-32.382 68.787l-6.47 11.787 2.692 3.53c4.684 6.141 16.731 17.509 23.989 22.636 13.93 9.841 32.982 17.727 50.5 20.901 10.709 1.94 41.703 1.652 54.5-.507 29.76-5.022 58.005-16.117 82.185-32.283C879.487 868.129 891 859.223 891 858.089c0-1.209-11.85-10.419-21.338-16.586-9.067-5.892-12.181-9.49-13.288-15.349-2.033-10.757 9.408-20.983 20.158-18.019 4.776 1.317 20.456 11.595 30.309 19.868 3.928 3.298 7.567 5.997 8.087 5.997 1.383 0 11.933-13.196 19.655-24.585 7.842-11.567 17.872-31.36 16.557-32.675-1.651-1.651-25.527-9.466-37.597-12.306-10.1-2.376-12.537-3.337-15.694-6.189-6.376-5.76-7.402-13.378-2.804-20.817 2.553-4.131 8.488-7.428 13.372-7.428 5.12 0 28.327 6.167 42.336 11.25l12.16 4.412 2.06-8.776c3.964-16.885 5.311-29.548 5.306-49.886-.009-32.232-5.126-57.354-17.889-87.818-5.484-13.088-9.689-20.911-25.957-48.283-16.943-28.509-17.756-30.335-17.238-38.726.343-5.55 1.476-9.028 6.735-20.673 17.63-39.032 30.167-77.299 36.269-110.698 3.055-16.729 3.324-52.64.468-62.742-1.952-6.905-4.95-13.479-7.438-16.31-5.091-5.791-13.486.362-57.103 41.849-18.757 17.842-31.453 28.411-37.846 31.507-6.579 3.186-15.968 2.882-23.062-.746-4.649-2.378-7.453-5.122-16.448-16.097-19.873-24.247-41.976-44.54-65.77-60.384-13.834-9.211-39.493-21.797-54.663-26.811-29.566-9.774-62.802-13.211-92.337-9.549M483.472 414.042c-22.558 2.95-43.417 13.772-61.496 31.905-41.717 41.844-56.083 112.177-35.486 173.731 30.326 90.627 121.266 120.026 182.004 58.838 11.159-11.242 19.048-22.225 26.425-36.79 17.555-34.659 22.824-76.611 14.677-116.849-14.262-70.438-68.767-118.336-126.124-110.835M733 420.493c-32.157 7.194-59.066 29.478-76.272 63.164-24.298 47.569-24.915 105.261-1.647 154.013 12.591 26.381 36.307 50.362 59.587 60.252 18.937 8.045 40.346 9.625 59.832 4.416 8.481-2.267 23.53-9.476 31.352-15.018 14.906-10.562 30.79-29.677 40.11-48.267 31.161-62.155 20.124-143.752-25.65-189.636-13.133-13.164-28.838-22.658-45.486-27.497-9.645-2.804-32.229-3.575-41.826-1.427m-246.5 26.205c-10.102 1.339-23.947 7.451-33.457 14.769-19.664 15.131-34.366 41.527-40.698 73.069-2.761 13.752-2.486 43.39.533 57.464 6.905 32.196 22.013 57.906 42.597 72.488 13.818 9.789 23.776 13.018 40.025 12.981 10.506-.024 12.996-.375 20-2.814 53.092-18.494 80.104-96.542 56.467-163.155-15.387-43.364-49.886-69.522-85.467-64.802m-1.207 97.691c-18.715 6.113-28.111 30.783-22.133 58.111 2.806 12.827 11.917 23.961 22.078 26.978 15.317 4.549 30.232-1.502 37.551-15.233C527.225 605.922 529 598.135 529 587c0-19.511-6.719-33.719-19.143-40.481-6.307-3.433-17.581-4.41-24.564-2.13m259.761-.187c-12.483 1.92-21.631 11.397-25.559 26.478-1.973 7.575-1.953 25.143.038 32.785 3.206 12.309 10.872 21.781 20.201 24.96 2.542.866 7.805 1.571 11.694 1.565 19.895-.027 32.542-16.735 32.542-42.99 0-29.004-15.778-46.356-38.916-42.798M617.958 912.591c-6.976 7.185-22.707 19.519-32.229 25.271-21.772 13.15-47.911 22.28-70.729 24.704-9.834 1.044-10.066 1.501-3.364 6.624 19.874 15.191 47.265 27.315 73.864 32.695 50.93 10.301 105.864-1.468 146.913-31.476 9.117-6.665 9.196-6.531-4.913-8.356-36.177-4.68-73.487-23.053-98.466-48.487-3.006-3.062-5.725-5.566-6.042-5.566-.316 0-2.582 2.066-5.034 4.591" fill="undefined" fill-rule="evenodd"/></svg>