<?xml version="1.0" encoding="utf-8"?>
<!-- Generator: Adobe Illustrator 24.0.3, SVG Export Plug-In . SVG Version: 6.00 Build 0)  -->
<svg version="1.1" id="Layer_1" xmlns="http://www.w3.org/2000/svg" xmlns:xlink="http://www.w3.org/1999/xlink" x="0px" y="0px"
	 viewBox="0 0 28.6 27" style="enable-background:new 0 0 28.6 27;" xml:space="preserve">
<style type="text/css">
	.st0{fill:#FFD23F;}
</style>
<title>home</title>
<path class="st0" d="M27.7,11L17.3,1.5c-2.2-2-3.9-2-6,0L0.8,11c-1,0.8-1.2,2.3-0.5,3.3c0.4,0.6,1.1,0.9,1.9,0.9l3,0l0,8.7
	c0,1.7,1.4,3,3,3l12.1,0c1.7,0,3-1.4,3-3l0-8.7l3,0c1.3,0,2.4-1.1,2.4-2.4C28.7,12.1,28.3,11.4,27.7,11z M19.5,17.4
	c-0.8,0.9-1.9,1.9-3.2,3c-0.4,0.4-0.9,0.8-1.5,1.3c-0.1,0.1-0.3,0.2-0.5,0.2c-0.2,0-0.4-0.1-0.5-0.2c-0.5-0.5-1-0.9-1.5-1.3
	c-1.3-1.1-2.4-2.1-3.2-3c-0.9-1.1-1.3-2.1-1.3-3.1c0-1.1,0.4-2,1-2.8c0.7-0.7,1.6-1.1,2.6-1.1c0.7,0,1.4,0.2,2,0.7
	c0.3,0.2,0.6,0.5,0.8,0.9c0.2-0.3,0.5-0.6,0.8-0.9c0.6-0.5,1.3-0.7,2-0.7c1,0,1.9,0.4,2.6,1.1c0.7,0.7,1,1.7,1,2.8
	C20.8,15.3,20.3,16.3,19.5,17.4z"/>
</svg>
