<svg width="282" height="758" viewBox="0 0 282 758" fill="none" xmlns="http://www.w3.org/2000/svg">
<path d="M245.99 299.84L226.64 267.18C250.64 213.41 264.09 165.52 266.61 124.69C269.04 85.22 260.6 53.7 242.83 35.94C223.94 17.04 199.93 13.81 175.26 26.82C158.71 35.55 143.57 50.35 127.53 66.03C122.31 71.13 117.01 76.3 111.7 81.21C78.97 44.01 41.03 16.63 0 0.159973V757.72C40.13 739.55 70.48 711.33 83.57 682.63C144.5 668.7 199.09 630.86 238.15 574.15C244.08 565.82 327.3 444.24 245.99 299.84Z" fill="#670081"/>
</svg>
