<svg id="Layer_1" data-name="Layer 1" xmlns="http://www.w3.org/2000/svg" viewBox="0 0 94.7 53.04"><defs><style>.cls-1{fill:#fff;}</style></defs><title>type-neg</title><path class="cls-1" d="M18.07,18.36a5.52,5.52,0,0,0-5.27-5.77v-.21a5,5,0,0,0,4.05-5.17c0-3.57-2.7-5.82-7-5.82H3.12C1,1.39,0,2.39,0,4.38V22c0,2,1,3,3.12,3H9.84C14.84,25,18.07,22.41,18.07,18.36ZM4.64,4.9H8.78C11,4.9,12.25,6.08,12.25,8s-1.39,3.22-4.52,3.22H4.64Zm0,16.61v-7H9.08c2.73,0,4.22,1.37,4.22,3.6s-1.5,3.43-5.19,3.43Z"/><path class="cls-1" d="M25.63,25.27c3.14,0,4.92-1.61,5.51-3.31h.24v1A2.06,2.06,0,0,0,33.6,25.2a2.16,2.16,0,0,0,2.25-2.42V9c0-1.67-.88-2.48-2.29-2.48S31.28,7.29,31.28,9v8.78a3.62,3.62,0,0,1-3.87,3.74c-1.81,0-3.27-1-3.27-3.53V9c0-1.67-.87-2.48-2.27-2.48S19.59,7.29,19.59,9V19.11C19.59,23.37,22.06,25.27,25.63,25.27Z"/><path class="cls-1" d="M50.1,22.1h.23V23a2.11,2.11,0,0,0,2.23,2.23c1.45,0,2.25-.9,2.25-2.51V2.53C54.81.92,54,0,52.53,0s-2.29.92-2.29,2.53V9.39H50c-.71-1.89-2.68-3-5.25-3-4.24,0-6.91,3.08-6.91,8.05v2.81c0,5,2.65,8.05,6.86,8.05C47.35,25.27,49.51,24,50.1,22.1Zm-3.74-.47c-2.41,0-3.81-1.81-3.81-4.88V14.9c0-3.05,1.38-4.89,3.74-4.89s4,1.82,4,4.49v2.44C50.24,19.83,48.73,21.63,46.36,21.63Z"/><path class="cls-1" d="M69.43,22.1V23a2.11,2.11,0,0,0,2.23,2.23c1.45,0,2.25-.9,2.25-2.51V2.53C73.91.92,73.08,0,71.62,0s-2.28.92-2.28,2.53V9.39h-.23c-.71-1.89-2.68-3-5.25-3C59.62,6.36,57,9.44,57,14.41v2.81c0,5,2.65,8.05,6.86,8.05,2.64,0,4.8-1.28,5.39-3.17Zm-4-.47c-2.41,0-3.81-1.81-3.81-4.88V14.9C61.65,11.85,63,10,65.39,10s4,1.82,4,4.49v2.44C69.34,19.83,67.83,21.63,65.46,21.63Z"/><path class="cls-1" d="M91.78,8.68a2.08,2.08,0,0,0-2.16-2.13c-1.2,0-2,.71-2.34,2.18L83.67,21.25h-.19L79.92,8.73c-.37-1.47-1.15-2.18-2.38-2.18A2.14,2.14,0,0,0,75.29,8.7a3.64,3.64,0,0,0,.23,1.23l5.4,15.32a6.21,6.21,0,0,1-.22,1,2.51,2.51,0,0,1-2.29,1.94c-.52,0-.83-.08-1.2-.08a1.49,1.49,0,0,0-1.64,1.47,1.69,1.69,0,0,0,.5,1.23,3.84,3.84,0,0,0,2.67.79c3.69,0,5.82-1.69,7.26-5.82L91.52,9.93A3.7,3.7,0,0,0,91.78,8.68Z"/><path class="cls-1" d="M92.61,20.32a2.12,2.12,0,0,0-2.16,1.83L89.3,27.63a1.78,1.78,0,0,0,3.47.78L94.6,23A2.06,2.06,0,0,0,92.61,20.32Z"/><path class="cls-1" d="M40.65,39.89H32.81c-1.3,0-2,.62-2,1.75s.75,1.77,2,1.77h6.26V44.9c0,2.53-1.9,4.22-4.74,4.22H28.1c-3.55,0-5.56-2.42-5.56-6.74v-3.2c0-4.36,1.94-6.72,5.51-6.72h6.23c2.37,0,3.84,1.32,5.23,3.15a1.93,1.93,0,0,0,1.64.9,1.85,1.85,0,0,0,1.93-1.94,5.67,5.67,0,0,0-2.36-3.89A10.08,10.08,0,0,0,34,28.44H27.74c-3.62,0-6.38,1.37-8.06,3.82a1.76,1.76,0,0,0-.46-.06h-6a1.87,1.87,0,1,0,0,3.73h4.9a14.33,14.33,0,0,0-.31,2.94H8.38a1.87,1.87,0,1,0,0,3.74h9.47a15,15,0,0,0,.32,2.94H13.26a1.87,1.87,0,1,0,0,3.73h6a1.61,1.61,0,0,0,.49-.07c1.7,2.46,4.52,3.83,8.22,3.83h6.23c5.52,0,9.37-3.47,9.37-8.42V42.71C43.53,40.77,42.64,39.89,40.65,39.89Z"/><path class="cls-1" d="M59.58,33.85H53.36c-5,0-8.49,3.17-8.49,8.47v2.17c0,5.44,3.46,8.54,8.49,8.54h6.22c5,0,8.47-3.1,8.47-8.56V42.3C68.05,37,64.59,33.85,59.58,33.85Zm3.78,10.6c0,3.14-1.4,5-3.78,5H53.36c-2.34,0-3.8-1.89-3.8-5v-2c0-3.1,1.46-5,3.8-5h6.22c2.38,0,3.78,1.91,3.78,5Z"/><path class="cls-1" d="M71.55,28.2a2.37,2.37,0,0,0-2.44,2.45l.37,12.21a2.06,2.06,0,0,0,4.12,0L74,30.65A2.37,2.37,0,0,0,71.55,28.2Z"/><path class="cls-1" d="M71.54,48a2.45,2.45,0,1,0,2.63,2.44A2.48,2.48,0,0,0,71.54,48Z"/></svg>