<?xml version="1.0" encoding="utf-8"?>
<!-- Generator: Adobe Illustrator 24.1.0, SVG Export Plug-In . SVG Version: 6.00 Build 0)  -->
<!DOCTYPE svg PUBLIC "-//W3C//DTD SVG 1.1//EN" "http://www.w3.org/Graphics/SVG/1.1/DTD/svg11.dtd" [
	<!ENTITY ns_extend "http://ns.adobe.com/Extensibility/1.0/">
	<!ENTITY ns_ai "http://ns.adobe.com/AdobeIllustrator/10.0/">
	<!ENTITY ns_graphs "http://ns.adobe.com/Graphs/1.0/">
	<!ENTITY ns_vars "http://ns.adobe.com/Variables/1.0/">
	<!ENTITY ns_imrep "http://ns.adobe.com/ImageReplacement/1.0/">
	<!ENTITY ns_sfw "http://ns.adobe.com/SaveForWeb/1.0/">
	<!ENTITY ns_custom "http://ns.adobe.com/GenericCustomNamespace/1.0/">
	<!ENTITY ns_adobe_xpath "http://ns.adobe.com/XPath/1.0/">
]>
<svg version="1.1" id="Layer_1" xmlns:x="&ns_extend;" xmlns:i="&ns_ai;" xmlns:graph="&ns_graphs;"
	 xmlns="http://www.w3.org/2000/svg" xmlns:xlink="http://www.w3.org/1999/xlink" x="0px" y="0px" viewBox="0 0 28.9 27"
	 style="enable-background:new 0 0 28.9 27;" xml:space="preserve">
<style type="text/css">
	.st0{fill:#fff;}
</style>
<metadata>
	<sfw  xmlns="&ns_sfw;">
		<slices></slices>
		<sliceSourceBounds  bottomLeftOrigin="true" height="26.9" width="28.7" x="0.1" y="0"></sliceSourceBounds>
	</sfw>
</metadata>
<path class="st0" d="M27.9,11l-3.5-3.2V1.3c0-0.7-0.5-1.2-1.2-1.2c0,0,0,0,0,0h-2.6c-0.7,0-1.2,0.5-1.2,1.2v2l-1.9-1.7
	c-2.2-2-3.9-2-6,0L1,11c-1,0.8-1.2,2.3-0.5,3.3c0.4,0.6,1.1,0.9,1.9,0.9h2v8.7c0,1.7,1.4,3,3,3h3.9v-8c0-1.7,1.4-3.1,3.1-3.1
	s3.1,1.4,3.1,3.1v8h3.9c1.7,0,3-1.4,3-3v-8.7h2c1.3,0,2.4-1.1,2.4-2.4C28.9,12.1,28.5,11.4,27.9,11z"/>
</svg>
