<?xml version="1.0" encoding="utf-8"?>
<!-- Generator: Adobe Illustrator 24.1.0, SVG Export Plug-In . SVG Version: 6.00 Build 0)  -->
<svg version="1.1" id="Layer_1" xmlns="http://www.w3.org/2000/svg" xmlns:xlink="http://www.w3.org/1999/xlink" x="0px" y="0px"
	 width="162.403px" height="162.398px" viewBox="0 0 162.403 162.398" enable-background="new 0 0 162.403 162.398"
	 xml:space="preserve">
<g>
	<g id="Group_119" transform="translate(-126.394 -50.756)">
		<path id="Path_154" fill="#49006F" d="M283.971,185.055l-31.425-31.425c19.303-32.159,8.881-73.877-23.278-93.18
			s-73.877-8.881-93.18,23.278s-8.881,73.877,23.278,93.18c21.512,12.912,48.39,12.912,69.902,0l31.43,31.425
			c6.428,6.428,16.85,6.428,23.278,0s6.428-16.85,0-23.278H283.971z"/>
	</g>
	<g>
		<g id="Group_123" transform="translate(-17.878 -157.794)">
			<path id="Path_170" fill="#FFFFFF" d="M76.107,253.449c5.792,4.758,14.14,4.758,19.932,0c-3.808-0.232-7.379-1.928-9.966-4.733
				C83.487,251.521,79.916,253.217,76.107,253.449z"/>
			<path id="Path_171" fill="#FFFFFF" d="M96.821,218.191c-1.739,0-2.828,1.425-2.828,3.674s1.089,3.674,2.828,3.674
				c1.69,0,2.82-1.436,2.82-3.674C99.641,219.645,98.511,218.191,96.821,218.191z"/>
			<path id="Path_172" fill="#20E9DD" d="M85.8,173.894c-28.618,0.001-51.818,23.201-51.817,51.819s23.201,51.818,51.819,51.817
				s51.816-23.2,51.817-51.817c0.001-28.618-23.199-51.818-51.817-51.819C85.802,173.894,85.801,173.894,85.8,173.894z
				 M122.247,243.057c-0.591,0.457-1.441,0.348-1.898-0.243c-0.001-0.001-0.001-0.002-0.002-0.003
				c-0.787-1.017-1.697-1.933-2.709-2.727c-0.48,1.087-1.058,2.128-1.727,3.11c-0.733,1.065-1.543,2.074-2.425,3.019
				c1.039,1.704,1.708,3.607,1.965,5.586c0.095,0.74-0.427,1.417-1.167,1.513c-0.001,0-0.002,0-0.003,0
				c-0.057,0.007-0.115,0.011-0.173,0.011c-0.68-0.001-1.253-0.507-1.34-1.181c-0.184-1.402-0.624-2.758-1.3-4
				c-2.722,2.348-5.973,4.001-9.474,4.817c-1.984,4.344-8.356,8.567-15.924,8.567c-3.748-0.004-7.423-1.036-10.625-2.985
				c-2.273-1.305-4.115-3.245-5.3-5.583c-3.662-0.855-7.048-2.623-9.843-5.14c-0.777,1.329-1.281,2.8-1.482,4.326
				c-0.086,0.674-0.66,1.18-1.34,1.181c-0.058,0-0.116-0.004-0.173-0.011c-0.741-0.095-1.264-0.772-1.17-1.513
				c0.28-2.12,1.029-4.151,2.194-5.944c-0.756-0.841-1.458-1.73-2.1-2.661c-0.732-1.079-1.357-2.226-1.867-3.425
				c-1.178,0.864-2.229,1.887-3.123,3.042c-0.445,0.6-1.293,0.726-1.893,0.281c-0.6-0.445-0.726-1.293-0.281-1.893
				c0.01-0.014,0.021-0.028,0.032-0.042c1.207-1.56,2.656-2.915,4.293-4.015c-1.948-6.236-1.173-13.004,2.134-18.638l0.025-0.044
				l1.717-2.9c-1.942-4.031-3.161-8.371-3.6-12.824c-0.219-3.552,0.541-6.389,2.14-7.988c1.575-1.684,4.118-2.027,6.083-0.82
				c1.589,0.973,3.036,2.16,4.3,3.529c0.469,0.459,0.945,0.924,1.425,1.366c5.083-5.775,11.561-8.928,18.454-8.928
				c6.893,0,13.372,3.153,18.454,8.928c0.478-0.441,0.955-0.906,1.425-1.366c1.264-1.369,2.711-2.557,4.3-3.529
				c1.965-1.207,4.507-0.864,6.082,0.82c1.6,1.6,2.359,4.437,2.14,7.988c-0.439,4.453-1.658,8.794-3.6,12.825l1.742,2.94
				c3.366,5.734,4.107,12.637,2.034,18.955c1.451,1.041,2.743,2.287,3.835,3.7c0.458,0.59,0.35,1.44-0.24,1.898
				c0,0-0.001,0-0.001,0.001H122.247z"/>
			<path id="Path_173" fill="#FFFFFF" d="M110.403,216.864v-0.008v-0.006l-0.018-0.036c-0.03-0.051-0.058-0.1-0.083-0.156
				c-0.015-0.034-0.028-0.069-0.042-0.1s-0.028-0.065-0.039-0.1s-0.028-0.084-0.039-0.128c-0.008-0.027-0.017-0.053-0.024-0.08
				c-0.011-0.044-0.02-0.087-0.027-0.131s-0.013-0.058-0.017-0.086s-0.008-0.08-0.013-0.121s-0.007-0.067-0.008-0.1s0-0.07,0-0.105
				s0-0.079,0-0.118s0.006-0.06,0.007-0.09s0.008-0.086,0.014-0.129c0-0.028,0.011-0.058,0.017-0.086
				c0.008-0.044,0.015-0.086,0.027-0.128s0.02-0.069,0.03-0.1s0.02-0.07,0.032-0.1c0.02-0.056,0.044-0.111,0.067-0.166l0.015-0.037
				v-0.007l0,0c5.11-10.92,3.73-15.907,2.845-16.794c-0.074-0.086-0.166-0.154-0.27-0.2c-0.65-0.1-2.755,1.958-3.769,2.949
				c-1.097,1.118-2.271,2.157-3.513,3.111l0,0l0,0l-0.034,0.024c-0.081,0.059-0.166,0.112-0.254,0.159l-0.063,0.032
				c-0.097,0.05-0.197,0.092-0.3,0.126l-0.029,0.008c-0.096,0.03-0.194,0.054-0.294,0.07l-0.055,0.011
				c-0.103,0.015-0.206,0.023-0.31,0.024h-0.027h-0.053c-0.051,0-0.1,0-0.15-0.008l-0.091-0.01c-0.051-0.007-0.1-0.017-0.149-0.027
				c-0.03-0.006-0.058-0.01-0.086-0.017c-0.056-0.014-0.112-0.031-0.167-0.048l-0.062-0.02c-0.074-0.026-0.147-0.056-0.218-0.091
				c-0.02-0.008-0.038-0.02-0.058-0.03c-0.052-0.027-0.1-0.055-0.153-0.086c-0.025-0.015-0.049-0.034-0.074-0.049
				c-0.044-0.03-0.086-0.059-0.126-0.091c-0.025-0.02-0.049-0.039-0.073-0.06c-0.039-0.034-0.079-0.069-0.115-0.107
				c-0.022-0.021-0.045-0.044-0.066-0.066c-0.039-0.041-0.076-0.086-0.112-0.131c-0.013-0.015-0.028-0.03-0.041-0.046
				c-4.4-5.788-10.213-8.976-16.36-8.976s-11.957,3.188-16.361,8.976c-0.011,0.015-0.025,0.028-0.038,0.044
				c-0.037,0.046-0.076,0.093-0.115,0.135l-0.062,0.063c-0.039,0.038-0.08,0.074-0.121,0.111l-0.069,0.055
				c-0.044,0.035-0.089,0.066-0.133,0.1c-0.022,0.015-0.044,0.031-0.066,0.045c-0.056,0.034-0.112,0.066-0.171,0.094l-0.039,0.022
				c-0.073,0.035-0.147,0.066-0.223,0.093l-0.044,0.013c-0.062,0.021-0.124,0.039-0.187,0.055l-0.072,0.014
				c-0.055,0.011-0.11,0.021-0.164,0.028c-0.027,0.004-0.053,0.007-0.08,0.008c-0.055,0.006-0.11,0.008-0.164,0.01H67.92h-0.022
				c-0.106,0-0.211-0.008-0.316-0.024l-0.046-0.01c-0.102-0.017-0.202-0.041-0.3-0.073l-0.022-0.007
				c-0.103-0.035-0.203-0.077-0.3-0.126l-0.06-0.032c-0.088-0.047-0.173-0.1-0.254-0.159l-0.032-0.024l0,0h-0.006
				c-1.24-0.958-2.412-2.001-3.507-3.122c-1.013-0.99-3.127-3.047-3.768-2.949c-0.104,0.046-0.196,0.114-0.27,0.2
				c-0.886,0.886-2.266,5.877,2.85,16.805c0.121,0.258,0.191,0.536,0.207,0.82v0.006c0,0.065,0,0.131,0,0.2v0.025
				c0,0.059-0.008,0.119-0.015,0.178v0.044c-0.008,0.055-0.02,0.111-0.031,0.166l-0.011,0.051c-0.014,0.058-0.031,0.114-0.049,0.17
				l-0.013,0.041c-0.053,0.153-0.123,0.3-0.208,0.438l-2.286,3.858c-2.526,4.311-3.235,9.448-1.971,14.282
				c1.231-0.474,2.5-0.845,3.793-1.107c0.73-0.161,1.452,0.299,1.613,1.029c0.161,0.73-0.299,1.452-1.029,1.613
				c-0.014,0.003-0.029,0.006-0.043,0.009c-1.186,0.24-2.348,0.584-3.474,1.028c0.418,1.051,0.947,2.055,1.578,2.994l0.025,0.037
				c0.429,0.623,0.89,1.224,1.381,1.8c0.795-0.691,1.65-1.31,2.555-1.85c0.642-0.382,1.472-0.172,1.854,0.47s0.172,1.472-0.47,1.854
				l0,0c-0.723,0.431-1.409,0.922-2.05,1.468c3.191,2.944,7.366,4.593,11.708,4.623c3.333,0.092,6.503-1.442,8.5-4.112
				c-1.325-2.287-2.462-4.678-3.4-7.149c-0.47-1.287-0.277-2.724,0.517-3.841c1.231-1.7,3.668-2.31,5.537-2.31h0.006
				c1.87,0,4.306,0.607,5.537,2.31c0.794,1.117,0.988,2.553,0.518,3.841c-0.939,2.47-2.076,4.859-3.4,7.145
				c1.996,2.672,5.166,4.207,8.5,4.116c4.21-0.031,8.266-1.589,11.415-4.383c-0.719-0.645-1.499-1.218-2.329-1.713
				c-0.642-0.382-0.852-1.212-0.47-1.854s1.212-0.852,1.854-0.47c1.026,0.61,1.988,1.323,2.87,2.127
				c0.582-0.659,1.124-1.352,1.623-2.076l0.029-0.044c0.591-0.881,1.091-1.819,1.493-2.8c-1.272-0.539-2.596-0.948-3.951-1.219
				c-0.729-0.166-1.184-0.891-1.018-1.62c0.161-0.704,0.846-1.158,1.557-1.031c1.472,0.297,2.913,0.736,4.3,1.311
				c1.334-4.89,0.64-10.112-1.924-14.484L110.403,216.864z M75.378,232.237c-5.454,0-9.892-5.587-9.892-12.457
				s4.438-12.458,9.892-12.458c5.454,0,9.893,5.589,9.893,12.458S80.833,232.237,75.378,232.237z M96.816,231.787
				c-5.206,0-9.442-5.388-9.442-12.007s4.236-12.007,9.442-12.007s9.441,5.386,9.441,12.007S102.022,231.788,96.816,231.787
				L96.816,231.787z"/>
			<path id="Path_174" fill="#FFFFFF" d="M75.378,210.027c-3.963,0-7.187,4.375-7.187,9.753s3.224,9.753,7.187,9.753
				s7.187-4.375,7.187-9.753S79.341,210.027,75.378,210.027z M75.384,225.538c-1.741,0-2.829-1.415-2.829-3.674
				s1.089-3.674,2.829-3.674c1.689,0,2.818,1.454,2.818,3.674C78.202,224.102,77.073,225.538,75.384,225.538L75.384,225.538z"/>
		</g>
	</g>
</g>
</svg>
