<?xml version="1.0" encoding="utf-8"?>
<!-- Generator: Adobe Illustrator 24.0.3, SVG Export Plug-In . SVG Version: 6.00 Build 0)  -->
<svg version="1.1" id="Layer_1" xmlns="http://www.w3.org/2000/svg" xmlns:xlink="http://www.w3.org/1999/xlink" x="0px" y="0px"
	 viewBox="0 0 96.52 96.52" style="enable-background:new 0 0 96.52 96.52;" xml:space="preserve">
<style type="text/css">
	.st0{fill:#FFD23F;}
	.st1{fill:#49006F;}
</style>
<title>symbol-pos</title>
<circle id="Ellipse_67_6_" class="st0" cx="48.5" cy="48.5" r="47.5"/>
<path id="Path_56_3_" class="st1" d="M51.08,71.13L79.32,51.1c1.62-1.28,1.62-4.17,0-5.48L51.09,25.59
	c-2.01-1.62-5.03-1.98-6.34-0.86c-1.08,0.92-1.79,2.19-1.79,3.6l0,10.68l-16.71,0c-3.19,0.01-5.77,2.59-5.78,5.78l-0.01,7.13
	c0.01,3.19,2.59,5.77,5.78,5.78l16.71,0l0,10.68c0,2.5,2.03,4.53,4.53,4.53C48.4,72.92,49.93,72.07,51.08,71.13z"/>
</svg>
