<svg xmlns="http://www.w3.org/2000/svg" xmlns:xlink="http://www.w3.org/1999/xlink" width="375" height="812" viewBox="0 0 375 812">
  <defs>
    <clipPath id="clip-path">
      <rect id="Rectangle_254" data-name="Rectangle 254" width="375" height="812" fill="#fff" stroke="#707070" stroke-width="1"/>
    </clipPath>
    <clipPath id="clip-path-2">
      <path id="Path_36" data-name="Path 36" d="M-2075.791,1203.456a204.9,204.9,0,0,1,47.864-44.724c-1.426-4.673-2.782-9.533-4.023-14.592-11.178-45.573-15.467-115.941,27.571-192.38l.276-.479,19.079-32.2c-24-53.761-37.446-101.647-39.962-142.475-2.433-39.467,6.011-70.988,23.779-88.755,18.9-18.9,42.9-22.136,67.575-9.114,16.551,8.733,31.694,23.535,47.729,39.209,5.216,5.1,10.517,10.27,15.827,15.177,56.48-64.174,128.448-99.2,205.04-99.2s148.561,35.025,205.041,99.2c5.31-4.908,10.61-10.078,15.827-15.177,16.034-15.672,31.179-30.476,47.727-39.209,24.68-13.019,48.679-9.783,67.577,9.114,17.767,17.767,26.212,49.288,23.778,88.756-2.516,40.83-15.963,88.719-39.969,142.487l19.349,32.67c43.035,76.439,38.747,146.807,27.568,192.38-1.555,6.343-3.288,12.382-5.122,18.111a204.252,204.252,0,0,1,42.782,41.2,15.027,15.027,0,0,1-2.723,21.076,14.962,14.962,0,0,1-9.168,3.129,15,15,0,0,1-11.91-5.851,173.132,173.132,0,0,0-30.18-30.371c-9.005,19.989-17.481,32.356-19.059,34.589a291.1,291.1,0,0,1-26.965,33.573,158.793,158.793,0,0,1,21.835,62.072,15.025,15.025,0,0,1-13,16.809,14.836,14.836,0,0,1-1.92.123,15.03,15.03,0,0,1-14.888-13.127,127.793,127.793,0,0,0-14.4-44.458c-31.049,26.483-66.9,44.754-105.27,53.525-22.028,48.261-92.835,95.186-176.913,95.186-41.5,0-83.427-11.778-118.049-33.171-27.887-17.229-48.633-39.259-58.9-62.025-40.085-9.167-77.41-28.709-109.387-57.143a128.389,128.389,0,0,0-16.427,48.086,15.03,15.03,0,0,1-14.889,13.127,14.843,14.843,0,0,1-1.921-.123,15.028,15.028,0,0,1-13-16.809,159.327,159.327,0,0,1,24.342-66.091,292.568,292.568,0,0,1-23.29-29.558c-1.676-2.371-11.052-16.057-20.611-38.1a173.85,173.85,0,0,0-34.81,33.881,15,15,0,0,1-11.909,5.851,14.969,14.969,0,0,1-9.168-3.128A15.029,15.029,0,0,1-2075.791,1203.456Z" transform="translate(1569.269 -707.921)" fill="#ea526f"/>
    </clipPath>
  </defs>
  <g id="Mask_Group_15" data-name="Mask Group 15" clip-path="url(#clip-path)">
    <g id="Group_107" data-name="Group 107">
      <rect id="Rectangle_1" data-name="Rectangle 1" width="375" height="812" fill="#49006f"/>
      <g id="Mask_Group_14" data-name="Mask Group 14" clip-path="url(#clip-path-2)">
        <g id="Rectangle_253" data-name="Rectangle 253" fill="#ea526f" stroke="#707070" stroke-width="1">
          <rect width="375" height="812" stroke="none"/>
          <rect x="0.5" y="0.5" width="374" height="811" fill="none"/>
        </g>
      </g>
    </g>
  </g>
</svg>
