<svg id="Layer_1" data-name="Layer 1" xmlns="http://www.w3.org/2000/svg" viewBox="0 0 198.7 89.54"><defs><style>.cls-1{fill:#fff;}</style></defs><title>logo-neg-hor</title><path class="cls-1" d="M36.4,68.73a13.54,13.54,0,0,0,17.22,0A12.76,12.76,0,0,1,45,64.64,12.76,12.76,0,0,1,36.4,68.73Z"/><path class="cls-1" d="M54.3,38.27c-1.51,0-2.45,1.23-2.45,3.18s.94,3.17,2.45,3.17,2.43-1.24,2.43-3.17S55.76,38.27,54.3,38.27Z"/><path class="cls-1" d="M44.77,0A44.77,44.77,0,1,0,89.54,44.77,44.76,44.76,0,0,0,44.77,0ZM76.26,59.76a1.19,1.19,0,0,1-.71.24,1.17,1.17,0,0,1-.93-.46,13.69,13.69,0,0,0-2.34-2.35,17.38,17.38,0,0,1-1.49,2.68,22.61,22.61,0,0,1-2.1,2.61,12.37,12.37,0,0,1,1.7,4.83,1.18,1.18,0,0,1-1,1.31h-.15a1.17,1.17,0,0,1-1.16-1A9.7,9.7,0,0,0,67,64.15a19.14,19.14,0,0,1-8.18,4.16c-1.72,3.75-7.22,7.4-13.76,7.4a17.61,17.61,0,0,1-9.18-2.58,11.62,11.62,0,0,1-4.58-4.82,19.16,19.16,0,0,1-8.5-4.44,9.85,9.85,0,0,0-1.28,3.74,1.18,1.18,0,0,1-1.16,1h-.15a1.18,1.18,0,0,1-1-1.31A12.46,12.46,0,0,1,21,62.17a23.23,23.23,0,0,1-1.81-2.3,17,17,0,0,1-1.61-3,13.74,13.74,0,0,0-2.7,2.63,1.17,1.17,0,1,1-1.85-1.42,15.9,15.9,0,0,1,3.71-3.47,20.05,20.05,0,0,1,1.84-16.11l0,0L20.13,36A33,33,0,0,1,17,24.92c-.19-3.07.47-5.52,1.85-6.9a4.19,4.19,0,0,1,5.25-.71,17.46,17.46,0,0,1,3.72,3.05c.4.4.81.8,1.23,1.18,4.39-5,10-7.71,15.94-7.71s11.55,2.72,16,7.71c.41-.38.82-.78,1.23-1.18a17.17,17.17,0,0,1,3.71-3.05,4.19,4.19,0,0,1,5.25.71c1.38,1.38,2,3.83,1.85,6.9A32.75,32.75,0,0,1,69.89,36l1.51,2.54a20,20,0,0,1,1.76,16.38,16,16,0,0,1,3.31,3.2A1.18,1.18,0,0,1,76.26,59.76Z"/><path class="cls-1" d="M66,37.12h0s0,0,0,0a.83.83,0,0,1-.07-.13.36.36,0,0,1,0-.09l0-.09,0-.11a.64.64,0,0,1,0-.07.36.36,0,0,1,0-.11s0,0,0-.07,0-.07,0-.11a.19.19,0,0,0,0-.08V36a.19.19,0,0,0,0-.08s0-.07,0-.11,0,0,0-.07a.43.43,0,0,1,0-.11l0-.09s0-.06,0-.09l.06-.14,0,0h0c4.41-9.43,3.22-13.74,2.46-14.5-.16-.16-.23-.18-.24-.18-.56-.09-2.38,1.69-3.25,2.55a29.72,29.72,0,0,1-3,2.69h0l0,0a1.64,1.64,0,0,1-.22.14l0,0a1.17,1.17,0,0,1-.26.1h0a1.14,1.14,0,0,1-.25.06h0a1.23,1.23,0,0,1-.27,0h-.28l-.13,0h-.07l-.14,0-.06,0-.19-.08-.05,0L59.67,26l-.06,0-.11-.08-.07,0-.1-.09,0-.06-.1-.11,0,0c-3.81-5-8.83-7.76-14.14-7.76s-10.33,2.76-14.13,7.76l0,0a.58.58,0,0,1-.1.12l0,.06-.11.09s0,0,0,0l-.12.08-.06,0-.14.08,0,0-.19.08h0l-.16.05h-.06l-.14,0H29.3a1.23,1.23,0,0,1-.27,0h0a1.1,1.1,0,0,1-.26-.06h0L28.45,26l-.05,0a1.64,1.64,0,0,1-.22-.14l0,0h0a29.72,29.72,0,0,1-3-2.69c-.87-.86-2.7-2.64-3.25-2.55a.65.65,0,0,0-.24.18c-.76.76-1.95,5.07,2.47,14.51a2.25,2.25,0,0,1,.18.71h0v.19a.77.77,0,0,1,0,.15v0l0,.14a.09.09,0,0,1,0,0,.83.83,0,0,1,0,.15v0a2.64,2.64,0,0,1-.18.38l-2,3.33A16.3,16.3,0,0,0,20.3,52.81a20.08,20.08,0,0,1,3.28-1,1.17,1.17,0,0,1,.47,2.29,17.42,17.42,0,0,0-3,.88,13.27,13.27,0,0,0,1.36,2.59l0,0c.38.55.78,1.07,1.19,1.56a14.84,14.84,0,0,1,2.21-1.6,1.17,1.17,0,0,1,1.6.4,1.18,1.18,0,0,1-.4,1.61,12.8,12.8,0,0,0-1.77,1.26,15,15,0,0,0,10.11,4,8.89,8.89,0,0,0,7.35-3.55,43.36,43.36,0,0,1-2.95-6.18,3.62,3.62,0,0,1,.45-3.32c1.07-1.47,3.17-2,4.79-2h0c1.62,0,3.72.52,4.78,2a3.56,3.56,0,0,1,.45,3.32,41.68,41.68,0,0,1-2.94,6.17,8.86,8.86,0,0,0,7.35,3.56,15,15,0,0,0,9.87-3.78,11.59,11.59,0,0,0-2-1.48,1.18,1.18,0,0,1-.4-1.61,1.17,1.17,0,0,1,1.6-.4,15.79,15.79,0,0,1,2.48,1.84,19.58,19.58,0,0,0,1.4-1.8l0,0a14.29,14.29,0,0,0,1.29-2.41,17.68,17.68,0,0,0-3.42-1.05A1.17,1.17,0,1,1,66,51.86,19.06,19.06,0,0,1,69.67,53,16.3,16.3,0,0,0,68,40.47ZM35.77,50.41c-4.71,0-8.55-4.83-8.55-10.77s3.84-10.76,8.55-10.76,8.55,4.83,8.55,10.76S40.48,50.41,35.77,50.41ZM54.29,50c-4.5,0-8.16-4.66-8.16-10.38s3.66-10.37,8.16-10.37,8.16,4.65,8.16,10.37S58.79,50,54.29,50Z"/><path class="cls-1" d="M35.77,31.22c-3.42,0-6.21,3.78-6.21,8.42s2.79,8.43,6.21,8.43S42,44.29,42,39.64,39.19,31.22,35.77,31.22Zm0,13.4c-1.5,0-2.44-1.22-2.44-3.17s.94-3.18,2.44-3.18,2.44,1.26,2.44,3.18S37.23,44.62,35.77,44.62Z"/><path class="cls-1" d="M115.08,35.87a6,6,0,0,0-5.75-6.3v-.22a5.48,5.48,0,0,0,4.42-5.65c0-3.9-3-6.35-7.63-6.35H98.76c-2.28,0-3.4,1.09-3.4,3.27V39.88c0,2.19,1.12,3.26,3.4,3.26h7.34C111.56,43.14,115.08,40.29,115.08,35.87ZM100.43,21.18H105c2.38,0,3.78,1.29,3.78,3.39s-1.52,3.51-4.94,3.51h-3.36Zm0,18.13V31.63h4.84c3,0,4.61,1.5,4.61,3.94s-1.65,3.74-5.67,3.74Z"/><path class="cls-1" d="M123.33,43.41c3.42,0,5.37-1.76,6-3.61h.26v1.08A2.25,2.25,0,0,0,132,43.33a2.35,2.35,0,0,0,2.46-2.64V25.6c0-1.81-1-2.7-2.49-2.7s-2.5.89-2.5,2.7v9.59a3.94,3.94,0,0,1-4.21,4.08c-2,0-3.58-1.06-3.58-3.86V25.6c0-1.81-.94-2.7-2.47-2.7s-2.5.89-2.5,2.7V36.68C116.73,41.33,119.44,43.41,123.33,43.41Z"/><path class="cls-1" d="M150,40h.25v.95a2.3,2.3,0,0,0,2.43,2.43c1.59,0,2.46-1,2.46-2.74v-22c0-1.75-.91-2.76-2.49-2.76s-2.5,1-2.5,2.76v7.49h-.24c-.78-2.06-2.93-3.31-5.73-3.31-4.63,0-7.54,3.36-7.54,8.79v3.06c0,5.41,2.89,8.79,7.48,8.79C147,43.41,149.39,42,150,40ZM146,39.44c-2.63,0-4.16-2-4.16-5.33v-2c0-3.33,1.51-5.33,4.08-5.33s4.31,2,4.31,4.89v2.67C150.18,37.47,148.54,39.44,146,39.44Z"/><path class="cls-1" d="M171.12,40v.95a2.3,2.3,0,0,0,2.44,2.43c1.58,0,2.45-1,2.45-2.74v-22c0-1.75-.9-2.76-2.49-2.76s-2.5,1-2.5,2.76v7.49h-.24c-.78-2.06-2.93-3.31-5.73-3.31-4.63,0-7.54,3.36-7.54,8.79v3.06c0,5.41,2.89,8.79,7.48,8.79,2.88,0,5.24-1.4,5.88-3.46Zm-4.33-.51c-2.63,0-4.16-2-4.16-5.33v-2c0-3.33,1.51-5.33,4.08-5.33s4.31,2,4.31,4.89v2.67C171,37.47,169.38,39.44,166.79,39.44Z"/><path class="cls-1" d="M195.51,25.3A2.27,2.27,0,0,0,193.15,23c-1.3,0-2.14.77-2.55,2.38L186.67,39h-.21l-3.9-13.66C182.17,23.75,181.32,23,180,23a2.34,2.34,0,0,0-2.46,2.34,4.22,4.22,0,0,0,.24,1.34l5.9,16.73a8,8,0,0,1-.24,1.08,2.74,2.74,0,0,1-2.5,2.11c-.57,0-.91-.09-1.3-.09a1.64,1.64,0,0,0-1.8,1.61,1.83,1.83,0,0,0,.55,1.34,4.16,4.16,0,0,0,2.91.87c4,0,6.35-1.85,7.92-6.35l6-17.3A3.85,3.85,0,0,0,195.51,25.3Z"/><path class="cls-1" d="M196.42,38a2.32,2.32,0,0,0-2.36,2l-1.25,6a1.87,1.87,0,0,0,1.87,2.31,1.9,1.9,0,0,0,1.91-1.46l2-5.9A2.25,2.25,0,0,0,196.42,38Z"/><path class="cls-1" d="M139.72,59.36h-8.56c-1.41,0-2.21.68-2.21,1.91s.82,1.93,2.21,1.93H138v1.62c0,2.76-2.08,4.61-5.18,4.61H126c-3.88,0-6.07-2.64-6.07-7.35V58.59c0-4.77,2.12-7.34,6-7.34h6.79c2.59,0,4.2,1.44,5.71,3.44a2.12,2.12,0,0,0,1.8,1,2,2,0,0,0,2.1-2.12,6.16,6.16,0,0,0-2.57-4.25,11,11,0,0,0-7.38-2.44h-6.79c-3.95,0-7,1.49-8.79,4.16a2.16,2.16,0,0,0-.51-.06h-6.5a2,2,0,1,0,0,4.07h5.34a16.3,16.3,0,0,0-.33,3.21H104.5a2,2,0,0,0,0,4.07h10.34a16.1,16.1,0,0,0,.35,3.21h-5.36a2,2,0,1,0,0,4.08h6.5a1.91,1.91,0,0,0,.54-.08c1.86,2.69,4.94,4.18,9,4.18h6.79c6,0,10.23-3.78,10.23-9.19V62.44C142.86,60.32,141.89,59.36,139.72,59.36Z"/><path class="cls-1" d="M160.38,52.77h-6.8c-5.48,0-9.26,3.46-9.26,9.24v2.37c0,5.93,3.78,9.31,9.26,9.31h6.8c5.46,0,9.24-3.38,9.24-9.33V62C169.62,56.23,165.84,52.77,160.38,52.77Zm4.12,11.57c0,3.42-1.53,5.48-4.12,5.48h-6.8c-2.55,0-4.14-2.06-4.14-5.48V62.11c0-3.39,1.59-5.46,4.14-5.46h6.8c2.59,0,4.12,2.07,4.12,5.46Z"/><path class="cls-1" d="M173.44,46.61a2.56,2.56,0,0,0-2.66,2.66l.39,13.33a2.21,2.21,0,0,0,2.27,2.15,2.19,2.19,0,0,0,2.23-2.15l.45-13.33A2.58,2.58,0,0,0,173.44,46.61Z"/><path class="cls-1" d="M173.42,68.19a2.67,2.67,0,1,0,2.88,2.67A2.71,2.71,0,0,0,173.42,68.19Z"/></svg>