<?xml version="1.0" encoding="utf-8"?>
<!-- Generator: Adobe Illustrator 24.0.3, SVG Export Plug-In . SVG Version: 6.00 Build 0)  -->
<svg version="1.1" id="Layer_1" xmlns="http://www.w3.org/2000/svg" xmlns:xlink="http://www.w3.org/1999/xlink" x="0px" y="0px"
	 viewBox="0 0 356.2 89.5" style="enable-background:new 0 0 356.2 89.5;" xml:space="preserve">
<style type="text/css">
	.st0{fill:#FFFFFF;}
</style>
<title>Artboard 1</title>
<path class="st0" d="M36.4,68.7c5,4.1,12.2,4.1,17.2,0c-3.3-0.2-6.4-1.7-8.6-4.1C42.8,67.1,39.7,68.5,36.4,68.7z"/>
<path class="st0" d="M54.3,38.3c-1.5,0-2.5,1.2-2.5,3.2s0.9,3.2,2.5,3.2s2.4-1.2,2.4-3.2S55.8,38.3,54.3,38.3z"/>
<path class="st0" d="M44.8,0C20,0,0,20,0,44.8s20,44.8,44.8,44.8s44.8-20,44.8-44.8C89.5,20,69.5,0,44.8,0C44.8,0,44.8,0,44.8,0z
	 M76.3,59.8c-0.2,0.2-0.5,0.2-0.7,0.2c-0.4,0-0.7-0.2-0.9-0.5c-0.7-0.9-1.5-1.7-2.3-2.3c-0.4,0.9-0.9,1.8-1.5,2.7
	c-0.6,0.9-1.3,1.8-2.1,2.6c0.9,1.5,1.5,3.1,1.7,4.8c0.1,0.6-0.4,1.2-1,1.3h-0.2c-0.6,0-1.1-0.4-1.2-1c-0.1-1.2-0.5-2.4-1.1-3.5
	c-2.3,2-5.2,3.5-8.2,4.2c-1.7,3.8-7.2,7.4-13.8,7.4c-3.2,0-6.4-0.9-9.2-2.6c-2-1.1-3.6-2.8-4.6-4.8c-3.2-0.7-6.1-2.3-8.5-4.4
	c-0.7,1.1-1.1,2.4-1.3,3.7c-0.1,0.6-0.6,1-1.2,1h-0.1c-0.6-0.1-1.1-0.7-1-1.3c0.2-1.8,0.8-3.6,1.8-5.1c-0.7-0.7-1.3-1.5-1.8-2.3
	c-0.6-0.9-1.2-1.9-1.6-3c-1,0.7-1.9,1.6-2.7,2.6c-0.4,0.5-1.1,0.7-1.6,0.3c-0.5-0.4-0.7-1.1-0.3-1.6c0-0.1,0.1-0.1,0.1-0.2
	c1-1.3,2.3-2.5,3.7-3.5c-1.7-5.4-1-11.2,1.8-16.1l0,0l1.5-2.5c-1.7-3.5-2.7-7.2-3.1-11.1c-0.2-3.1,0.5-5.5,1.9-6.9
	c1.4-1.5,3.6-1.8,5.2-0.7c1.4,0.8,2.6,1.9,3.7,3c0.4,0.4,0.8,0.8,1.2,1.2c4.4-5,10-7.7,15.9-7.7s11.5,2.7,16,7.7
	c0.4-0.4,0.8-0.8,1.2-1.2c1.1-1.2,2.3-2.2,3.7-3c1.7-1,3.9-0.7,5.2,0.7c1.4,1.4,2,3.8,1.8,6.9c-0.4,3.8-1.4,7.6-3.1,11.1l1.5,2.5
	c2.9,5,3.6,10.9,1.8,16.4c1.3,0.9,2.4,2,3.3,3.2C76.9,58.6,76.8,59.4,76.3,59.8z"/>
<path class="st0" d="M66,37.1L66,37.1L66,37.1c0,0-0.1-0.1-0.1-0.1c0,0,0-0.1,0-0.1v-0.1v-0.1c0,0,0,0,0-0.1c0,0,0-0.1,0-0.1
	c0,0,0,0,0-0.1s0-0.1,0-0.1c0,0,0-0.1,0-0.1V36c0,0,0-0.1,0-0.1c0,0,0-0.1,0-0.1s0,0,0-0.1c0,0,0-0.1,0-0.1v-0.1c0,0,0-0.1,0-0.1
	l0.1-0.1l0,0l0,0c4.4-9.4,3.2-13.7,2.5-14.5c-0.2-0.2-0.2-0.2-0.2-0.2c-0.6-0.1-2.4,1.7-3.2,2.5c-0.9,1-1.9,1.9-3,2.7l0,0l0,0
	c-0.1,0.1-0.1,0.1-0.2,0.1l0,0c-0.1,0-0.2,0.1-0.3,0.1l0,0c-0.1,0-0.2,0-0.2,0.1l0,0c-0.1,0-0.2,0-0.3,0h-0.3h-0.1h-0.1h-0.1h-0.1
	l-0.2-0.1h0L59.7,26h-0.1l-0.1-0.1h-0.1l-0.1-0.1v-0.1l-0.1-0.1l0,0c-3.8-5-8.8-7.8-14.1-7.8S34.8,20.7,31,25.7l0,0
	c0,0-0.1,0.1-0.1,0.1v0.1l-0.1,0.1l0,0L30.6,26h-0.1l-0.1,0.1l0,0l-0.2,0.1l0,0l-0.2,0H30h-0.1h-0.6c-0.1,0-0.2,0-0.3,0l0,0
	c-0.1,0-0.2,0-0.3-0.1l0,0L28.5,26h0c-0.1,0-0.2-0.1-0.2-0.1l0,0l0,0c-1.1-0.8-2.1-1.7-3-2.7c-0.9-0.9-2.7-2.6-3.2-2.5
	c-0.1,0-0.2,0.1-0.2,0.2c-0.8,0.8-2,5.1,2.5,14.5c0.1,0.2,0.2,0.5,0.2,0.7l0,0v0.2c0,0,0,0.1,0,0.2l0,0v0.1l0,0c0,0,0,0.1,0,0.2l0,0
	c0,0.1-0.1,0.3-0.2,0.4l-2,3.3c-2.3,3.7-2.9,8.2-1.9,12.5c1.1-0.4,2.2-0.8,3.3-1c0.6-0.1,1.2,0.3,1.3,1c0.1,0.6-0.3,1.2-0.9,1.3
	c-1,0.2-2,0.5-3,0.9c0.4,0.9,0.8,1.8,1.4,2.6l0,0c0.4,0.5,0.8,1.1,1.2,1.6c0.7-0.6,1.4-1.1,2.2-1.6c0.6-0.3,1.3-0.2,1.6,0.4
	c0.3,0.6,0.2,1.3-0.4,1.6c-0.6,0.4-1.2,0.8-1.8,1.3c2.8,2.6,6.4,4,10.1,4c2.9,0.1,5.6-1.2,7.3-3.5c-1.1-2-2.1-4-3-6.2
	c-0.4-1.1-0.2-2.4,0.5-3.3c1.1-1.5,3.2-2,4.8-2l0,0c1.6,0,3.7,0.5,4.8,2c0.7,1,0.9,2.2,0.5,3.3c-0.8,2.1-1.8,4.2-2.9,6.2
	c1.7,2.3,4.5,3.6,7.3,3.6c3.6,0,7.1-1.4,9.9-3.8c-0.6-0.6-1.3-1.1-2-1.5c-0.6-0.3-0.7-1.1-0.4-1.6c0.3-0.6,1-0.7,1.6-0.4
	c0.9,0.5,1.7,1.1,2.5,1.8c0.5-0.6,1-1.2,1.4-1.8l0,0c0.5-0.8,0.9-1.6,1.3-2.4c-1.1-0.5-2.2-0.8-3.4-1c-0.6-0.1-1.1-0.6-1.1-1.3
	c0.1-0.6,0.6-1.1,1.3-1.1c0.1,0,0.2,0,0.3,0.1c1.3,0.3,2.5,0.6,3.7,1.1c1.2-4.2,0.5-8.7-1.7-12.5L66,37.1z M35.8,50.4
	c-4.7,0-8.5-4.8-8.5-10.8s3.8-10.8,8.5-10.8s8.5,4.8,8.5,10.8S40.5,50.4,35.8,50.4z M54.3,50c-4.5,0-8.2-4.7-8.2-10.4
	s3.7-10.4,8.2-10.4s8.2,4.7,8.2,10.4S58.8,50,54.3,50z"/>
<path class="st0" d="M35.8,31.2c-3.4,0-6.2,3.8-6.2,8.4s2.8,8.4,6.2,8.4s6.2-3.8,6.2-8.4S39.2,31.2,35.8,31.2z M35.8,44.6
	c-1.5,0-2.4-1.2-2.4-3.2s0.9-3.2,2.4-3.2s2.4,1.3,2.4,3.2S37.2,44.6,35.8,44.6z"/>
<path class="st0" d="M127.6,52.9c0.2-4.8-3.5-8.9-8.3-9.1c0,0,0,0,0,0v-0.3c3.9-0.8,6.6-4.2,6.4-8.2c0-5.6-4.3-9.2-11-9.2h-10.6
	c-3.3,0-4.9,1.6-4.9,4.7v27.8c0,3.2,1.6,4.7,4.9,4.7h10.6C122.6,63.4,127.6,59.2,127.6,52.9z M106.5,31.7h6.5c3.4,0,5.5,1.8,5.5,4.9
	c0,3.2-2.2,5.1-7.1,5.1h-4.9L106.5,31.7z M106.5,57.8V46.8h7c4.3,0,6.7,2.2,6.7,5.7s-2.4,5.4-8.2,5.4H106.5z"/>
<path class="st0" d="M139.6,63.8c4.9,0,7.8-2.5,8.7-5.2h0.4v1.6c0.1,2.4,1.4,3.5,3.5,3.5s3.6-1.3,3.6-3.8V38c0-2.6-1.4-3.9-3.6-3.9
	s-3.6,1.3-3.6,3.9v13.8c0.1,3.1-2.3,5.8-5.5,5.9c-0.2,0-0.4,0-0.6,0c-2.9,0-5.2-1.5-5.2-5.6V38c0-2.6-1.4-3.9-3.6-3.9
	S130,35.4,130,38v16C130,60.8,133.9,63.8,139.6,63.8z"/>
<path class="st0" d="M178.1,58.8h0.4v1.4c0.1,2.2,1.4,3.5,3.5,3.5c2.3,0,3.6-1.4,3.6-4V27.9c0-2.5-1.3-4-3.6-4s-3.6,1.5-3.6,4v10.8
	H178c-1.1-3-4.2-4.8-8.3-4.8c-6.7,0-10.9,4.9-10.9,12.7v4.4c0,7.8,4.2,12.7,10.8,12.7C173.8,63.8,177.2,61.7,178.1,58.8z M172.2,58
	c-3.8,0-6-2.9-6-7.7v-2.9c0-4.8,2.2-7.7,5.9-7.7s6.2,2.9,6.2,7.1v3.8C178.3,55.2,176,58,172.2,58L172.2,58z"/>
<path class="st0" d="M208.6,58.8v1.4c0.1,2.2,1.4,3.5,3.5,3.5c2.3,0,3.6-1.4,3.6-4V27.9c0-2.5-1.3-4-3.6-4s-3.6,1.5-3.6,4v10.8h-0.4
	c-1.1-3-4.2-4.8-8.3-4.8c-6.7,0-10.9,4.9-10.9,12.7v4.4c0,7.8,4.2,12.7,10.8,12.7c4.1,0,7.6-2,8.5-5H208.6z M202.3,58
	c-3.8,0-6-2.9-6-7.7v-2.9c0-4.8,2.2-7.7,5.9-7.7s6.2,2.9,6.2,7.1v3.8C208.4,55.2,206.1,58,202.3,58z"/>
<path class="st0" d="M243.8,37.6c0-1.8-1.4-3.3-3.2-3.4c-0.1,0-0.1,0-0.2,0c-1.9,0-3.1,1.1-3.7,3.4L231,57.4h-0.3l-5.6-19.7
	c-0.6-2.3-1.8-3.4-3.7-3.4c-1.9-0.1-3.5,1.3-3.5,3.2c0,0.1,0,0.1,0,0.2c0,0.7,0.1,1.3,0.4,1.9l8.5,24.2c-0.1,0.5-0.2,1-0.4,1.6
	c-0.4,1.7-1.9,2.9-3.6,3c-0.8,0-1.3-0.1-1.9-0.1c-1.3-0.1-2.5,0.8-2.6,2.1c0,0.1,0,0.1,0,0.2c0,0.7,0.3,1.4,0.8,1.9
	c1.2,0.9,2.7,1.4,4.2,1.3c5.8,0,9.2-2.7,11.4-9.2l8.7-25C243.6,38.9,243.8,38.3,243.8,37.6z"/>
<path class="st0" d="M245.1,56c-1.7,0-3.2,1.2-3.4,2.9l-1.8,8.6c-0.3,1.5,0.6,2.9,2,3.3c0.2,0.1,0.5,0.1,0.7,0.1
	c1.3,0,2.5-0.8,2.8-2.1l2.9-8.5c0.5-1.7-0.4-3.5-2.1-4.1C245.8,56,245.5,56,245.1,56z"/>
<path class="st0" d="M304.9,43.6h-12c-2,0-3.1,1-3.1,2.7s1.2,2.7,3.1,2.7h9.6v2.3c0,3.9-2.9,6.5-7.2,6.5h-9.5
	c-5.4,0-8.5-3.7-8.5-10.3v-4.9c0-6.7,3-10.3,8.4-10.3h9.5c3.6,0,5.9,2,8,4.8c0.6,0.9,1.5,1.4,2.5,1.4c1.6,0.1,2.9-1.1,2.9-2.7
	c0-0.1,0-0.2,0-0.3c0-1.9-1.4-4.2-3.6-6c-2.9-2.3-6.6-3.6-10.3-3.4h-9.5c-5.5,0-9.8,2.1-12.3,5.8c-0.2-0.1-0.5-0.1-0.7-0.1h-9.1
	c-1.6,0.1-2.8,1.4-2.7,3c0.1,1.4,1.2,2.6,2.7,2.7h7.5c-0.3,1.5-0.5,3-0.5,4.5h-14.5c-1.6,0.1-2.8,1.4-2.7,3c0.1,1.4,1.2,2.6,2.7,2.7
	h14.5c0,1.5,0.2,3,0.5,4.5H263c-1.6,0.1-2.8,1.4-2.7,3c0.1,1.4,1.2,2.6,2.7,2.7h9.1c0.3,0,0.5,0,0.8-0.1c2.6,3.8,6.9,5.8,12.6,5.8
	h9.5c8.5,0,14.3-5.3,14.3-12.9V48C309.3,45,308,43.6,304.9,43.6z"/>
<path class="st0" d="M333.9,34.4h-9.5c-7.7,0-13,4.8-13,13v3.3c0,8.3,5.3,13,13,13h9.5c7.6,0,13-4.7,13-13.1v-3.4
	C346.8,39.2,341.5,34.4,333.9,34.4z M339.6,50.6c0,4.8-2.1,7.7-5.8,7.7h-9.5c-3.6,0-5.8-2.9-5.8-7.7v-3.1c0-4.7,2.2-7.7,5.8-7.7h9.5
	c3.6,0,5.8,2.9,5.8,7.7V50.6z"/>
<path class="st0" d="M352.2,25.8c-2-0.1-3.7,1.5-3.7,3.4c0,0.1,0,0.2,0,0.3l0.6,18.7c0.1,1.7,1.5,3,3.2,3c1.7,0,3.1-1.3,3.1-3
	l0.6-18.7c0.1-2-1.5-3.7-3.5-3.7C352.3,25.8,352.3,25.8,352.2,25.8z"/>
<path class="st0" d="M352.1,56c-2.1,0.1-3.6,1.9-3.5,4c0.1,2.1,1.9,3.6,4,3.5c2-0.1,3.5-1.8,3.5-3.7c0-2.1-1.7-3.8-3.8-3.7
	C352.3,56,352.2,56,352.1,56z"/>
</svg>
