<svg id="Layer_1" data-name="Layer 1" xmlns="http://www.w3.org/2000/svg" viewBox="0 0 28.56 26.69"><defs><style>.cls-1{fill:#fff;}</style></defs><title>paw</title><g id="Group_21" data-name="Group 21"><line id="Line_1" data-name="Line 1" class="cls-1" x1="14.28" y1="25.05" x2="14.27" y2="25.05"/><line id="Line_2" data-name="Line 2" class="cls-1" x1="14.27" y1="25.05" x2="14.28" y2="25.05"/><g id="Group_20" data-name="Group 20"><path id="Path_54" data-name="Path 54" class="cls-1" d="M14.28,25.05a3.25,3.25,0,0,0,2.9,1.64,5.34,5.34,0,0,0,4.39-2.43,5.59,5.59,0,0,0,.15-5.81L19,13.87a5.61,5.61,0,0,0-4.73-2.57,5.26,5.26,0,0,0-4.72,2.57L6.84,18.45A5.58,5.58,0,0,0,7,24.25a5.37,5.37,0,0,0,4.38,2.44,3.25,3.25,0,0,0,2.91-1.64"/></g></g><g id="Group_22" data-name="Group 22"><ellipse id="Ellipse_57" data-name="Ellipse 57" class="cls-1" cx="19" cy="5.65" rx="3.92" ry="5.67" transform="translate(-0.54 2.32) rotate(-6.89)"/><ellipse id="Ellipse_58" data-name="Ellipse 58" class="cls-1" cx="9.56" cy="5.65" rx="5.67" ry="3.92" transform="translate(2.8 14.46) rotate(-83.09)"/></g><g id="Group_23" data-name="Group 23"><ellipse id="Ellipse_59" data-name="Ellipse 59" class="cls-1" cx="25" cy="13.11" rx="4.86" ry="3.4" transform="translate(5.04 33.07) rotate(-72.67)"/><ellipse id="Ellipse_60" data-name="Ellipse 60" class="cls-1" cx="3.55" cy="13.1" rx="3.4" ry="4.86" transform="matrix(0.95, -0.3, 0.3, 0.95, -3.74, 1.65)"/></g></svg>