<?xml version="1.0" encoding="utf-8"?>
<!-- Generator: Adobe Illustrator 24.0.3, SVG Export Plug-In . SVG Version: 6.00 Build 0)  -->
<svg version="1.1" id="Layer_1" xmlns="http://www.w3.org/2000/svg" xmlns:xlink="http://www.w3.org/1999/xlink" x="0px" y="0px"
	 viewBox="0 0 77.81 77.12" style="enable-background:new 0 0 77.81 77.12;" xml:space="preserve">
<title>symbol-pos</title>
<g>
	<path d="M28.16,28.43c-1.75,0-2.84,1.43-2.84,3.69c0,2.27,1.09,3.69,2.84,3.69c1.7,0,2.83-1.44,2.83-3.69
		C30.99,29.89,29.86,28.43,28.16,28.43z"/>
	<path d="M28.16,17.51c-5.48,0-9.94,5.62-9.94,12.52s4.46,12.52,9.94,12.52c5.48,0,9.94-5.62,9.94-12.52S33.64,17.51,28.16,17.51z
		 M28.16,39.83c-3.98,0-7.22-4.4-7.22-9.8s3.24-9.8,7.22-9.8s7.22,4.4,7.22,9.8S32.14,39.83,28.16,39.83z"/>
	<g>
		<path d="M49.7,17.96c-5.23,0-9.49,5.41-9.49,12.07s4.26,12.07,9.49,12.07s9.49-5.41,9.49-12.07S54.93,17.96,49.7,17.96z
			 M53.63,32.85c0.68,0.68,0.68,1.79,0,2.47l-0.02,0.02c-0.68,0.68-1.79,0.68-2.47,0L49.7,33.9l-1.44,1.44
			c-0.68,0.68-1.79,0.68-2.47,0l-0.02-0.02c-0.68-0.68-0.68-1.79,0-2.47l1.44-1.44l-1.44-1.44c-0.68-0.68-0.68-1.79,0-2.47
			l0.02-0.02c0.68-0.68,1.79-0.68,2.47,0l1.44,1.44l1.44-1.44c0.68-0.68,1.79-0.68,2.47,0l0.02,0.02c0.68,0.68,0.68,1.79,0,2.47
			l-1.44,1.44L53.63,32.85z"/>
	</g>
	<path d="M75.38,24.48c2.1-1.4,2.88-3.45,2.19-5.77c-0.65-2.18-2.79-4.21-6.03-5.72c-3.39-1.58-7.82-2.58-13.2-2.98
		C53.1,3.55,46.24,0,38.91,0c-7.33,0-14.2,3.55-19.43,10.02c-5.38,0.4-9.82,1.4-13.2,2.98c-3.24,1.51-5.38,3.54-6.03,5.72
		c-0.69,2.32,0.09,4.36,2.19,5.77c1.41,0.94,3.24,1.51,5.17,2.1c0.53,0.16,1.06,0.33,1.59,0.5L8.24,28.7l-0.02,0.04
		c-4.17,7.4-3.55,14.14-2.14,18.73c-1.66,1.12-3.11,2.47-4.31,4.03C1.3,52.1,1.41,52.96,2,53.42c0.25,0.19,0.54,0.28,0.83,0.28
		c0.41,0,0.81-0.18,1.08-0.53c0.89-1.16,1.95-2.18,3.14-3.06c0.86,1.98,1.71,3.21,1.88,3.44c0.66,0.95,1.36,1.84,2.11,2.67
		c-1.17,1.82-1.93,3.85-2.21,5.97c-0.1,0.74,0.43,1.43,1.18,1.52c0.06,0.01,0.12,0.01,0.17,0.01c0.67,0,1.26-0.5,1.35-1.19
		c0.2-1.53,0.71-3,1.49-4.35c4.13,3.67,9.26,5.71,14.68,5.71c0.41,0,0.82-0.02,1.22-0.05l0,3.36c0.02,5.44,4.45,9.88,9.89,9.91
		l0.12,0h0.02c5.45-0.01,9.89-4.46,9.91-9.91l0-3.36c0.41,0.03,0.83,0.05,1.25,0.05c5.26,0,10.24-1.91,14.31-5.38
		c0.68,1.26,1.12,2.61,1.3,4.02c0.09,0.69,0.67,1.19,1.35,1.19c0.06,0,0.12,0,0.17-0.01c0.74-0.09,1.27-0.78,1.18-1.52
		c-0.25-1.99-0.93-3.89-1.98-5.61c0.87-0.93,1.69-1.94,2.44-3.03c0.16-0.22,0.92-1.33,1.74-3.12c1.02,0.8,1.93,1.72,2.72,2.74
		c0.27,0.35,0.67,0.53,1.08,0.53c0.29,0,0.58-0.09,0.83-0.28c0.59-0.46,0.7-1.31,0.25-1.91c-1.09-1.42-2.39-2.66-3.86-3.72
		c1.48-4.59,2.22-11.47-2.04-19.05l-0.98-1.66c0.52-0.17,1.06-0.34,1.59-0.5C72.14,25.99,73.97,25.42,75.38,24.48z M44.33,67.2
		c-0.01,2.96-2.42,5.37-5.37,5.39l-0.12,0c-2.96-0.01-5.38-2.43-5.39-5.38l0-4.36c1.49-0.58,2.86-1.4,4.08-2.42l0,6.32
		c0,0.75,0.61,1.36,1.36,1.36h0c0.75,0,1.36-0.61,1.36-1.36l0-6.35c1.22,1.03,2.59,1.85,4.09,2.44L44.33,67.2z M64.66,23.76
		c-0.18,0.05-0.35,0.12-0.52,0.22c-1.08,0.64-1.43,2.03-0.79,3.1l2.31,3.91c3.2,5.7,2.92,10.89,1.93,14.56
		c-1.35-0.56-2.79-1.01-4.32-1.32c-0.74-0.15-1.45,0.32-1.6,1.06c-0.15,0.74,0.32,1.45,1.06,1.6c1.41,0.29,2.73,0.7,3.97,1.23
		c-0.71,1.68-1.42,2.69-1.5,2.81l-0.03,0.04c-0.51,0.74-1.05,1.44-1.63,2.09c-0.87-0.79-1.83-1.51-2.88-2.14
		c-0.64-0.38-1.48-0.17-1.86,0.47c-0.38,0.64-0.17,1.48,0.47,1.86c0.85,0.51,1.64,1.09,2.34,1.72c-3.28,2.84-7.28,4.4-11.49,4.4
		c-4.47,0-7.12-2.26-8.54-4.14c0.97-1.72,2.67-4.92,3.42-7.18c0.46-1.39,0.27-2.76-0.52-3.86c-1.24-1.71-3.69-2.32-5.56-2.32
		c0,0,0,0,0,0s0,0,0,0c-1.88,0-4.33,0.61-5.56,2.32c-0.79,1.1-0.98,2.47-0.52,3.86c0.75,2.27,2.46,5.46,3.42,7.18
		c-1.43,1.88-4.07,4.13-8.54,4.13c-4.33,0-8.43-1.65-11.76-4.65c0.63-0.54,1.32-1.03,2.06-1.47c0.64-0.38,0.86-1.22,0.47-1.86
		c-0.38-0.64-1.22-0.86-1.86-0.47c-0.93,0.55-1.78,1.18-2.57,1.86c-0.49-0.57-0.95-1.17-1.39-1.81l-0.03-0.04
		c-0.09-0.13-0.85-1.21-1.58-3.01c1.1-0.43,2.26-0.78,3.49-1.03c0.74-0.15,1.21-0.87,1.06-1.6c-0.15-0.74-0.87-1.21-1.6-1.06
		c-1.33,0.27-2.61,0.65-3.81,1.11c-0.95-3.65-1.16-8.76,1.98-14.35l2.32-3.91c0.64-1.08,0.28-2.47-0.79-3.1
		c-0.17-0.1-0.34-0.17-0.52-0.22c-1.35-0.61-2.8-1.06-4.21-1.5c-1.36-0.42-4.19-1.3-4.41-1.92c0,0-0.02-0.09,0.05-0.34
		c0.36-1.21,4.11-4.82,16.21-5.53c0.79-0.05,1.46-0.49,1.83-1.13c4.4-5.69,10.18-8.82,16.28-8.82c6.1,0,11.88,3.13,16.28,8.82
		c0.37,0.64,1.04,1.08,1.83,1.13c12.1,0.72,15.85,4.32,16.21,5.53c0.07,0.24,0.05,0.34,0.05,0.34c-0.22,0.62-3.05,1.5-4.41,1.92
		C67.46,22.69,66.01,23.14,64.66,23.76z"/>
</g>
</svg>
