<svg id="Layer_1" data-name="Layer 1" xmlns="http://www.w3.org/2000/svg" viewBox="0 0 96.52 96.52"><defs><style>.cls-1{fill:#20e9dd;}.cls-2{fill:#fff;}</style></defs><title>symbol-pos</title><circle class="cls-1" cx="48.26" cy="48.26" r="48.26"/><path class="cls-2" d="M75.15,43l-1.52-2.57c3-6.68,4.72-14.69,1.27-18.16-3.26-3.28-6.72.12-9,2.37-.41.4-.83.81-1.24,1.19-4.42-5-10-7.79-16-7.79s-11.6,2.75-16,7.79c-.42-.38-.83-.79-1.24-1.19-2.29-2.25-5.75-5.65-9-2.37-3.45,3.47-1.68,11.48,1.26,18.16L22.13,43l0,0a20.59,20.59,0,0,0,.61,21.55,20.21,20.21,0,0,0,12.07,8.51c2,4.52,8.44,7.49,13.84,7.49,6.58,0,12.11-3.7,13.83-7.49a20.22,20.22,0,0,0,12.08-8.51A20.59,20.59,0,0,0,75.15,43Z"/><path d="M82.43,63.69a16.94,16.94,0,0,0-3.57-3.45A21.56,21.56,0,0,0,77,42.59l-1.62-2.74a35.37,35.37,0,0,0,3.35-11.94c.21-3.31-.5-5.95-2-7.44A4.51,4.51,0,0,0,71,19.7,19.29,19.29,0,0,0,67,23c-.43.43-.88.86-1.32,1.27C61,18.88,54.94,16,48.52,16s-12.45,2.93-17.19,8.31c-.44-.41-.89-.84-1.32-1.27a19.29,19.29,0,0,0-4-3.29,4.51,4.51,0,0,0-5.66.77c-1.49,1.49-2.2,4.13-2,7.44A35.6,35.6,0,0,0,21.7,39.85l-1.6,2.7,0,0a21.57,21.57,0,0,0-2,17.36,17.16,17.16,0,0,0-4,3.74,1.26,1.26,0,0,0,.23,1.77,1.29,1.29,0,0,0,.76.26,1.25,1.25,0,0,0,1-.49A14.78,14.78,0,0,1,19,62.39a18.31,18.31,0,0,0,1.74,3.19,23,23,0,0,0,2,2.48,13.31,13.31,0,0,0-2.05,5.54A1.26,1.26,0,0,0,21.73,75h.16a1.26,1.26,0,0,0,1.25-1.1,10.79,10.79,0,0,1,1.38-4,20.81,20.81,0,0,0,9.17,4.79,12.57,12.57,0,0,0,4.93,5.2,19.13,19.13,0,0,0,9.9,2.78c7,0,13-3.94,14.83-8a20.7,20.7,0,0,0,8.82-4.49,10.75,10.75,0,0,1,1.21,3.73A1.26,1.26,0,0,0,74.63,75h.16a1.26,1.26,0,0,0,1.09-1.41,13.17,13.17,0,0,0-1.83-5.2,25.14,25.14,0,0,0,2.26-2.82,18.88,18.88,0,0,0,1.61-2.89,14.42,14.42,0,0,1,2.52,2.54,1.26,1.26,0,1,0,2-1.54ZM48.52,78.46a14.4,14.4,0,0,1-9.28-3.32,13.84,13.84,0,0,0,9.28-4.41,13.84,13.84,0,0,0,9.28,4.41A14.42,14.42,0,0,1,48.52,78.46ZM75.1,58.16a21.9,21.9,0,0,0-4-1.22,1.25,1.25,0,0,0-1.48,1,1.26,1.26,0,0,0,1,1.49,18.78,18.78,0,0,1,3.68,1.14,14.68,14.68,0,0,1-1.39,2.6l0,0a19.51,19.51,0,0,1-1.51,1.93,16.65,16.65,0,0,0-2.67-2,1.26,1.26,0,1,0-1.29,2.17,13.92,13.92,0,0,1,2.17,1.59A16.22,16.22,0,0,1,58.91,71,9.55,9.55,0,0,1,51,67.15a44.85,44.85,0,0,0,3.17-6.66,3.92,3.92,0,0,0-.48-3.58c-1.15-1.58-3.42-2.15-5.16-2.15h0c-1.74,0-4,.57-5.15,2.15a3.86,3.86,0,0,0-.48,3.58,44.85,44.85,0,0,0,3.17,6.66A9.58,9.58,0,0,1,38.13,71a16.19,16.19,0,0,1-10.9-4.31,14.79,14.79,0,0,1,1.9-1.36,1.26,1.26,0,0,0-1.28-2.17,15.43,15.43,0,0,0-2.38,1.73q-.67-.8-1.29-1.68l0,0a13.79,13.79,0,0,1-1.47-2.78,18.34,18.34,0,0,1,3.23-1,1.28,1.28,0,0,0,1-1.49,1.26,1.26,0,0,0-1.49-1,21.58,21.58,0,0,0-3.53,1,17.52,17.52,0,0,1,1.83-13.3l2.13-3.6a2.25,2.25,0,0,0,.12-.21v0a.87.87,0,0,0,.07-.17l0-.05a1,1,0,0,0,0-.14.2.2,0,0,0,0-.07l0-.14a.11.11,0,0,1,0-.05s0-.1,0-.15v-.23c0-.06,0-.12,0-.18h0c0-.07,0-.13,0-.19h0L26,39.27h0L26,39.09c-4.76-10.18-3.48-14.83-2.65-15.65a.7.7,0,0,1,.25-.19c.6-.1,2.57,1.82,3.51,2.74a31.18,31.18,0,0,0,3.27,2.91h0l0,0c.08.06.16.1.24.15l.06,0,.28.11h0l.28.07h.05l.29,0h.29l.15,0,.07,0,.17-.05h0l.2-.08,0,0,.16-.08.06-.05.13-.08.06-.06a.52.52,0,0,0,.11-.1l.06-.06.11-.12,0-.05c4.1-5.39,9.52-8.35,15.24-8.35s11.14,3,15.24,8.35l0,.05.11.12.06.06.11.1.07.06.11.08.07.05.15.08,0,0,.2.08.06,0,.16,0,.08,0,.13,0h.3l.29,0h.05l.28-.07h0l.28-.11.06,0,.24-.15,0,0h0A31.18,31.18,0,0,0,70,26c.94-.92,2.91-2.84,3.51-2.74a.7.7,0,0,1,.25.19c.83.82,2.11,5.47-2.65,15.65l0,.07a.54.54,0,0,0,0,.11.56.56,0,0,1,0,.12.24.24,0,0,1,0,.08l0,.13a.2.2,0,0,1,0,.07s0,.09,0,.13,0,.05,0,.07v.21s0,.07,0,.11,0,.06,0,.09,0,.07,0,.1,0,.07,0,.1l0,.1,0,.1s0,.07,0,.11a.3.3,0,0,0,0,.08.91.91,0,0,0,.09.17h0l2.14,3.61A17.55,17.55,0,0,1,75.1,58.16Z"/><path d="M58.52,32.59c-4.84,0-8.79,5-8.79,11.19S53.68,55,58.52,55s8.8-5,8.8-11.18S63.37,32.59,58.52,32.59Zm0,16.55c-1.62,0-2.64-1.32-2.64-3.42s1-3.42,2.64-3.42,2.62,1.35,2.62,3.42S60.1,49.14,58.53,49.14Z"/><path d="M38.56,42.3c-1.62,0-2.63,1.32-2.63,3.42s1,3.42,2.63,3.42,2.63-1.34,2.63-3.42S40.14,42.3,38.56,42.3Z"/><path d="M38.56,32.17c-5.08,0-9.21,5.21-9.21,11.61s4.13,11.6,9.21,11.6,9.21-5.21,9.21-11.6S43.64,32.17,38.56,32.17Zm0,20.69c-3.69,0-6.69-4.07-6.69-9.08s3-9.09,6.69-9.09,6.69,4.08,6.69,9.09S42.25,52.86,38.56,52.86Z"/></svg>